<svg width="67" height="59" viewBox="0 0 67 59" fill="none" xmlns="http://www.w3.org/2000/svg">
<path d="M67 14.8438V52.5312C67 55.999 64.1865 58.8125 60.7188 58.8125H6.28125C2.81348 58.8125 0 55.999 0 52.5312V14.8438C0 11.376 2.81348 8.5625 6.28125 8.5625H17.7969L19.4064 4.25723C20.3225 1.81016 22.6648 0.1875 25.282 0.1875H41.7049C44.3221 0.1875 46.6645 1.81016 47.5805 4.25723L49.2031 8.5625H60.7188C64.1865 8.5625 67 11.376 67 14.8438ZM49.2031 33.6875C49.2031 25.0246 42.1629 17.9844 33.5 17.9844C24.8371 17.9844 17.7969 25.0246 17.7969 33.6875C17.7969 42.3504 24.8371 49.3906 33.5 49.3906C42.1629 49.3906 49.2031 42.3504 49.2031 33.6875ZM45.0156 33.6875C45.0156 40.0342 39.8467 45.2031 33.5 45.2031C27.1533 45.2031 21.9844 40.0342 21.9844 33.6875C21.9844 27.3408 27.1533 22.1719 33.5 22.1719C39.8467 22.1719 45.0156 27.3408 45.0156 33.6875Z" fill="#EDD5BB"/>
</svg>
